G04 EAGLE Gerber RS-274X export*
G75*
%MOMM*%
%FSLAX34Y34*%
%LPD*%
%INTop Copper*%
%IPPOS*%
%AMOC8*
5,1,8,0,0,1.08239X$1,22.5*%
G01*
%ADD10C,1.524000*%
%ADD11P,1.429621X8X292.500000*%
%ADD12C,2.550000*%
%ADD13C,1.320800*%
%ADD14C,1.600000*%
%ADD15C,0.400000*%
%ADD16C,0.500000*%


D10*
X431800Y760095D02*
X431800Y744855D01*
X406400Y744855D02*
X406400Y760095D01*
X381000Y760095D02*
X381000Y744855D01*
X355600Y744855D02*
X355600Y760095D01*
X330200Y760095D02*
X330200Y744855D01*
X304800Y744855D02*
X304800Y760095D01*
X279400Y760095D02*
X279400Y744855D01*
X254000Y744855D02*
X254000Y760095D01*
X228600Y760095D02*
X228600Y744855D01*
X203200Y744855D02*
X203200Y760095D01*
X177800Y760095D02*
X177800Y744855D01*
X152400Y744855D02*
X152400Y760095D01*
X127000Y760095D02*
X127000Y744855D01*
X101600Y744855D02*
X101600Y760095D01*
X76200Y760095D02*
X76200Y744855D01*
D11*
X158750Y333375D03*
X158750Y206375D03*
X120650Y333375D03*
X120650Y206375D03*
D10*
X1713230Y498475D02*
X1728470Y498475D01*
X1728470Y523875D02*
X1713230Y523875D01*
X1713230Y549275D02*
X1728470Y549275D01*
X1728470Y574675D02*
X1713230Y574675D01*
X1713230Y600075D02*
X1728470Y600075D01*
X1728470Y625475D02*
X1713230Y625475D01*
X1713230Y650875D02*
X1728470Y650875D01*
X1728470Y676275D02*
X1713230Y676275D01*
X1713230Y701675D02*
X1728470Y701675D01*
X1728470Y727075D02*
X1713230Y727075D01*
X1566545Y498475D02*
X1551305Y498475D01*
X1551305Y523875D02*
X1566545Y523875D01*
X1566545Y549275D02*
X1551305Y549275D01*
X1551305Y574675D02*
X1566545Y574675D01*
X1566545Y600075D02*
X1551305Y600075D01*
X1551305Y625475D02*
X1566545Y625475D01*
X1566545Y650875D02*
X1551305Y650875D01*
X1551305Y676275D02*
X1566545Y676275D01*
X1566545Y701675D02*
X1551305Y701675D01*
X1551305Y727075D02*
X1566545Y727075D01*
D11*
X349250Y333375D03*
X349250Y206375D03*
X311150Y333375D03*
X311150Y206375D03*
X552450Y333375D03*
X552450Y206375D03*
X514350Y333375D03*
X514350Y206375D03*
X742950Y333375D03*
X742950Y206375D03*
X704850Y333375D03*
X704850Y206375D03*
X933450Y333375D03*
X933450Y206375D03*
X895350Y333375D03*
X895350Y206375D03*
X1123950Y333375D03*
X1123950Y206375D03*
X1085850Y333375D03*
X1085850Y206375D03*
X1314450Y333375D03*
X1314450Y206375D03*
X1276350Y333375D03*
X1276350Y206375D03*
X1511300Y333375D03*
X1511300Y206375D03*
X1473200Y333375D03*
X1473200Y206375D03*
X1282700Y1057275D03*
X1282700Y930275D03*
X1123950Y1057275D03*
X1123950Y930275D03*
X1085850Y1057275D03*
X1085850Y930275D03*
X933450Y1057275D03*
X933450Y930275D03*
X895350Y1057275D03*
X895350Y930275D03*
X742950Y1057275D03*
X742950Y930275D03*
X704850Y1057275D03*
X704850Y930275D03*
X552450Y1057275D03*
X552450Y930275D03*
X361950Y1057275D03*
X361950Y930275D03*
X323850Y1057275D03*
X323850Y930275D03*
X133350Y1057275D03*
X133350Y930275D03*
X1320800Y1057275D03*
X1320800Y930275D03*
X514350Y1057275D03*
X514350Y930275D03*
D12*
X1281950Y1108025D02*
X1281950Y1133525D01*
X1321550Y1133525D02*
X1321550Y1108025D01*
X1085100Y1108025D02*
X1085100Y1133525D01*
X1124700Y1133525D02*
X1124700Y1108025D01*
X894600Y1108025D02*
X894600Y1133525D01*
X934200Y1133525D02*
X934200Y1108025D01*
X704100Y1108025D02*
X704100Y1133525D01*
X743700Y1133525D02*
X743700Y1108025D01*
X513600Y1108025D02*
X513600Y1133525D01*
X553200Y1133525D02*
X553200Y1108025D01*
X323100Y1108025D02*
X323100Y1133525D01*
X362700Y1133525D02*
X362700Y1108025D01*
X132600Y1108025D02*
X132600Y1133525D01*
X172200Y1133525D02*
X172200Y1108025D01*
X1472450Y155625D02*
X1472450Y130125D01*
X1512050Y130125D02*
X1512050Y155625D01*
X1275600Y155625D02*
X1275600Y130125D01*
X1315200Y130125D02*
X1315200Y155625D01*
X1085100Y155625D02*
X1085100Y130125D01*
X1124700Y130125D02*
X1124700Y155625D01*
X894600Y155625D02*
X894600Y130125D01*
X934200Y130125D02*
X934200Y155625D01*
X704100Y155625D02*
X704100Y130125D01*
X743700Y130125D02*
X743700Y155625D01*
X513600Y155625D02*
X513600Y130125D01*
X553200Y130125D02*
X553200Y155625D01*
X310400Y155625D02*
X310400Y130125D01*
X350000Y130125D02*
X350000Y155625D01*
X119900Y155625D02*
X119900Y130125D01*
X159500Y130125D02*
X159500Y155625D01*
D10*
X431800Y490855D02*
X431800Y506095D01*
X406400Y506095D02*
X406400Y490855D01*
X381000Y490855D02*
X381000Y506095D01*
X355600Y506095D02*
X355600Y490855D01*
X330200Y490855D02*
X330200Y506095D01*
X304800Y506095D02*
X304800Y490855D01*
X279400Y490855D02*
X279400Y506095D01*
X254000Y506095D02*
X254000Y490855D01*
X228600Y490855D02*
X228600Y506095D01*
X203200Y506095D02*
X203200Y490855D01*
X177800Y490855D02*
X177800Y506095D01*
X152400Y506095D02*
X152400Y490855D01*
X127000Y490855D02*
X127000Y506095D01*
X101600Y506095D02*
X101600Y490855D01*
X76200Y490855D02*
X76200Y506095D01*
D11*
X171450Y1057275D03*
X171450Y930275D03*
D13*
X749046Y704850D02*
X762254Y704850D01*
X762254Y679450D02*
X749046Y679450D01*
X749046Y552450D02*
X762254Y552450D01*
X762254Y527050D02*
X749046Y527050D01*
X749046Y654050D02*
X762254Y654050D01*
X762254Y628650D02*
X749046Y628650D01*
X749046Y577850D02*
X762254Y577850D01*
X762254Y603250D02*
X749046Y603250D01*
X686054Y527050D02*
X672846Y527050D01*
X672846Y552450D02*
X686054Y552450D01*
X686054Y577850D02*
X672846Y577850D01*
X672846Y603250D02*
X686054Y603250D01*
X686054Y628650D02*
X672846Y628650D01*
X672846Y654050D02*
X686054Y654050D01*
X686054Y679450D02*
X672846Y679450D01*
X672846Y704850D02*
X686054Y704850D01*
X942721Y527050D02*
X955929Y527050D01*
X955929Y552450D02*
X942721Y552450D01*
X942721Y679450D02*
X955929Y679450D01*
X955929Y704850D02*
X942721Y704850D01*
X942721Y577850D02*
X955929Y577850D01*
X955929Y603250D02*
X942721Y603250D01*
X942721Y654050D02*
X955929Y654050D01*
X955929Y628650D02*
X942721Y628650D01*
X1018921Y704850D02*
X1032129Y704850D01*
X1032129Y679450D02*
X1018921Y679450D01*
X1018921Y654050D02*
X1032129Y654050D01*
X1032129Y628650D02*
X1018921Y628650D01*
X1018921Y603250D02*
X1032129Y603250D01*
X1032129Y577850D02*
X1018921Y577850D01*
X1018921Y552450D02*
X1032129Y552450D01*
X1032129Y527050D02*
X1018921Y527050D01*
X1231646Y527050D02*
X1244854Y527050D01*
X1244854Y552450D02*
X1231646Y552450D01*
X1231646Y679450D02*
X1244854Y679450D01*
X1244854Y704850D02*
X1231646Y704850D01*
X1231646Y577850D02*
X1244854Y577850D01*
X1244854Y603250D02*
X1231646Y603250D01*
X1231646Y654050D02*
X1244854Y654050D01*
X1244854Y628650D02*
X1231646Y628650D01*
X1307846Y704850D02*
X1321054Y704850D01*
X1321054Y679450D02*
X1307846Y679450D01*
X1307846Y654050D02*
X1321054Y654050D01*
X1321054Y628650D02*
X1307846Y628650D01*
X1307846Y603250D02*
X1321054Y603250D01*
X1321054Y577850D02*
X1307846Y577850D01*
X1307846Y552450D02*
X1321054Y552450D01*
X1321054Y527050D02*
X1307846Y527050D01*
D14*
X679450Y355600D03*
D15*
X679450Y463550D01*
D14*
X679450Y463550D03*
X635811Y355600D03*
D15*
X635811Y463550D01*
D14*
X635811Y463550D03*
X593725Y355600D03*
D15*
X593725Y463550D01*
D14*
X593725Y463550D03*
X1050925Y695325D03*
D15*
X1123950Y695325D01*
D14*
X1123950Y695325D03*
X1050925Y654050D03*
D15*
X1139825Y654050D01*
D14*
X1139825Y654050D03*
X1057275Y577850D03*
X1155700Y577850D03*
D15*
X1057275Y577850D01*
D14*
X1181100Y762000D03*
D15*
X1397000Y762000D01*
D14*
X1397000Y762000D03*
X1206500Y739775D03*
X1365250Y739775D03*
D15*
X1206500Y739775D01*
D14*
X1279525Y781050D03*
D15*
X1123950Y781050D01*
D14*
X1123950Y781050D03*
X1282700Y803275D03*
D15*
X1060450Y803275D01*
D14*
X1060450Y803275D03*
X657225Y355600D03*
D15*
X657225Y463550D01*
D14*
X657225Y463550D03*
X485775Y469900D03*
D15*
X485775Y146050D01*
D14*
X485775Y146050D03*
X614397Y355600D03*
D15*
X614397Y463550D01*
D14*
X614397Y463550D03*
X76200Y330200D03*
D16*
X76200Y206375D01*
D14*
X76200Y206375D03*
X1384300Y25717D03*
D16*
X1384300Y498475D01*
D14*
X1384300Y498475D03*
X803275Y704850D03*
X803275Y25717D03*
D16*
X803275Y488950D02*
X803275Y704850D01*
D14*
X949325Y457200D03*
D16*
X803275Y419100D02*
X803275Y25717D01*
X841375Y457200D02*
X949325Y457200D01*
D14*
X841375Y457200D03*
X803275Y419100D03*
X803275Y488950D03*
M02*
