G04 EAGLE Gerber RS-274X export*
G75*
%MOMM*%
%FSLAX34Y34*%
%LPD*%
%INSilkscreen Bottom*%
%IPPOS*%
%AMOC8*
5,1,8,0,0,1.08239X$1,22.5*%
G01*
%ADD10C,0.152400*%
%ADD11C,0.127000*%


D10*
X688340Y514350D02*
X688340Y717550D01*
X746760Y717550D02*
X746760Y514350D01*
X688340Y514350D01*
X688340Y717550D02*
X707390Y717550D01*
X727710Y717550D02*
X746760Y717550D01*
X727710Y717550D02*
X727707Y717303D01*
X727698Y717055D01*
X727683Y716808D01*
X727662Y716562D01*
X727635Y716316D01*
X727602Y716071D01*
X727563Y715826D01*
X727518Y715583D01*
X727467Y715341D01*
X727410Y715100D01*
X727348Y714861D01*
X727279Y714623D01*
X727205Y714387D01*
X727125Y714153D01*
X727040Y713921D01*
X726948Y713691D01*
X726852Y713463D01*
X726749Y713238D01*
X726642Y713015D01*
X726528Y712795D01*
X726410Y712578D01*
X726286Y712363D01*
X726157Y712152D01*
X726023Y711944D01*
X725884Y711739D01*
X725740Y711538D01*
X725592Y711340D01*
X725438Y711146D01*
X725280Y710956D01*
X725117Y710770D01*
X724950Y710588D01*
X724778Y710410D01*
X724602Y710236D01*
X724422Y710066D01*
X724237Y709901D01*
X724049Y709741D01*
X723857Y709585D01*
X723661Y709433D01*
X723462Y709287D01*
X723259Y709145D01*
X723052Y709009D01*
X722843Y708877D01*
X722630Y708751D01*
X722414Y708630D01*
X722196Y708514D01*
X721974Y708404D01*
X721750Y708299D01*
X721524Y708199D01*
X721295Y708105D01*
X721064Y708017D01*
X720830Y707934D01*
X720595Y707857D01*
X720358Y707786D01*
X720120Y707720D01*
X719880Y707661D01*
X719638Y707607D01*
X719395Y707559D01*
X719152Y707517D01*
X718907Y707481D01*
X718661Y707451D01*
X718415Y707427D01*
X718168Y707409D01*
X717921Y707397D01*
X717674Y707391D01*
X717426Y707391D01*
X717179Y707397D01*
X716932Y707409D01*
X716685Y707427D01*
X716439Y707451D01*
X716193Y707481D01*
X715948Y707517D01*
X715705Y707559D01*
X715462Y707607D01*
X715220Y707661D01*
X714980Y707720D01*
X714742Y707786D01*
X714505Y707857D01*
X714270Y707934D01*
X714036Y708017D01*
X713805Y708105D01*
X713576Y708199D01*
X713350Y708299D01*
X713126Y708404D01*
X712904Y708514D01*
X712686Y708630D01*
X712470Y708751D01*
X712257Y708877D01*
X712048Y709009D01*
X711841Y709145D01*
X711638Y709287D01*
X711439Y709433D01*
X711243Y709585D01*
X711051Y709741D01*
X710863Y709901D01*
X710678Y710066D01*
X710498Y710236D01*
X710322Y710410D01*
X710150Y710588D01*
X709983Y710770D01*
X709820Y710956D01*
X709662Y711146D01*
X709508Y711340D01*
X709360Y711538D01*
X709216Y711739D01*
X709077Y711944D01*
X708943Y712152D01*
X708814Y712363D01*
X708690Y712578D01*
X708572Y712795D01*
X708458Y713015D01*
X708351Y713238D01*
X708248Y713463D01*
X708152Y713691D01*
X708060Y713921D01*
X707975Y714153D01*
X707895Y714387D01*
X707821Y714623D01*
X707752Y714861D01*
X707690Y715100D01*
X707633Y715341D01*
X707582Y715583D01*
X707537Y715826D01*
X707498Y716071D01*
X707465Y716316D01*
X707438Y716562D01*
X707417Y716808D01*
X707402Y717055D01*
X707393Y717303D01*
X707390Y717550D01*
D11*
X744855Y721995D02*
X744855Y733425D01*
X746125Y721995D02*
X743585Y721995D01*
X743585Y733425D02*
X746125Y733425D01*
X736383Y721995D02*
X733843Y721995D01*
X736383Y721995D02*
X736483Y721997D01*
X736582Y722003D01*
X736682Y722013D01*
X736780Y722026D01*
X736879Y722044D01*
X736976Y722065D01*
X737072Y722090D01*
X737168Y722119D01*
X737262Y722152D01*
X737355Y722188D01*
X737446Y722228D01*
X737536Y722272D01*
X737624Y722319D01*
X737710Y722369D01*
X737794Y722423D01*
X737876Y722480D01*
X737955Y722540D01*
X738033Y722604D01*
X738107Y722670D01*
X738179Y722739D01*
X738248Y722811D01*
X738314Y722885D01*
X738378Y722963D01*
X738438Y723042D01*
X738495Y723124D01*
X738549Y723208D01*
X738599Y723294D01*
X738646Y723382D01*
X738690Y723472D01*
X738730Y723563D01*
X738766Y723656D01*
X738799Y723750D01*
X738828Y723846D01*
X738853Y723942D01*
X738874Y724039D01*
X738892Y724138D01*
X738905Y724236D01*
X738915Y724336D01*
X738921Y724435D01*
X738923Y724535D01*
X738923Y730885D01*
X738921Y730985D01*
X738915Y731084D01*
X738905Y731184D01*
X738892Y731282D01*
X738874Y731381D01*
X738853Y731478D01*
X738828Y731574D01*
X738799Y731670D01*
X738766Y731764D01*
X738730Y731857D01*
X738690Y731948D01*
X738646Y732038D01*
X738599Y732126D01*
X738549Y732212D01*
X738495Y732296D01*
X738438Y732378D01*
X738378Y732457D01*
X738314Y732535D01*
X738248Y732609D01*
X738179Y732681D01*
X738107Y732750D01*
X738033Y732816D01*
X737955Y732880D01*
X737876Y732940D01*
X737794Y732997D01*
X737710Y733051D01*
X737624Y733101D01*
X737536Y733148D01*
X737446Y733192D01*
X737355Y733232D01*
X737262Y733268D01*
X737168Y733301D01*
X737072Y733330D01*
X736976Y733355D01*
X736879Y733376D01*
X736780Y733394D01*
X736682Y733407D01*
X736582Y733417D01*
X736483Y733423D01*
X736383Y733425D01*
X733843Y733425D01*
X729361Y721995D02*
X726186Y721995D01*
X726075Y721997D01*
X725965Y722003D01*
X725854Y722012D01*
X725744Y722026D01*
X725635Y722043D01*
X725526Y722064D01*
X725418Y722089D01*
X725311Y722118D01*
X725205Y722150D01*
X725100Y722186D01*
X724997Y722226D01*
X724895Y722269D01*
X724794Y722316D01*
X724695Y722367D01*
X724599Y722420D01*
X724504Y722477D01*
X724411Y722538D01*
X724320Y722601D01*
X724231Y722668D01*
X724145Y722738D01*
X724062Y722811D01*
X723980Y722886D01*
X723902Y722964D01*
X723827Y723046D01*
X723754Y723129D01*
X723684Y723215D01*
X723617Y723304D01*
X723554Y723395D01*
X723493Y723488D01*
X723436Y723583D01*
X723383Y723679D01*
X723332Y723778D01*
X723285Y723879D01*
X723242Y723981D01*
X723202Y724084D01*
X723166Y724189D01*
X723134Y724295D01*
X723105Y724402D01*
X723080Y724510D01*
X723059Y724619D01*
X723042Y724728D01*
X723028Y724838D01*
X723019Y724949D01*
X723013Y725059D01*
X723011Y725170D01*
X723013Y725281D01*
X723019Y725391D01*
X723028Y725502D01*
X723042Y725612D01*
X723059Y725721D01*
X723080Y725830D01*
X723105Y725938D01*
X723134Y726045D01*
X723166Y726151D01*
X723202Y726256D01*
X723242Y726359D01*
X723285Y726461D01*
X723332Y726562D01*
X723383Y726661D01*
X723436Y726758D01*
X723493Y726852D01*
X723554Y726945D01*
X723617Y727036D01*
X723684Y727125D01*
X723754Y727211D01*
X723827Y727294D01*
X723902Y727376D01*
X723980Y727454D01*
X724062Y727529D01*
X724145Y727602D01*
X724231Y727672D01*
X724320Y727739D01*
X724411Y727802D01*
X724504Y727863D01*
X724599Y727920D01*
X724695Y727973D01*
X724794Y728024D01*
X724895Y728071D01*
X724997Y728114D01*
X725100Y728154D01*
X725205Y728190D01*
X725311Y728222D01*
X725418Y728251D01*
X725526Y728276D01*
X725635Y728297D01*
X725744Y728314D01*
X725854Y728328D01*
X725965Y728337D01*
X726075Y728343D01*
X726186Y728345D01*
X725551Y733425D02*
X729361Y733425D01*
X725551Y733425D02*
X725451Y733423D01*
X725352Y733417D01*
X725252Y733407D01*
X725154Y733394D01*
X725055Y733376D01*
X724958Y733355D01*
X724862Y733330D01*
X724766Y733301D01*
X724672Y733268D01*
X724579Y733232D01*
X724488Y733192D01*
X724398Y733148D01*
X724310Y733101D01*
X724224Y733051D01*
X724140Y732997D01*
X724058Y732940D01*
X723979Y732880D01*
X723901Y732816D01*
X723827Y732750D01*
X723755Y732681D01*
X723686Y732609D01*
X723620Y732535D01*
X723556Y732457D01*
X723496Y732378D01*
X723439Y732296D01*
X723385Y732212D01*
X723335Y732126D01*
X723288Y732038D01*
X723244Y731948D01*
X723204Y731857D01*
X723168Y731764D01*
X723135Y731670D01*
X723106Y731574D01*
X723081Y731478D01*
X723060Y731381D01*
X723042Y731282D01*
X723029Y731184D01*
X723019Y731084D01*
X723013Y730985D01*
X723011Y730885D01*
X723013Y730785D01*
X723019Y730686D01*
X723029Y730586D01*
X723042Y730488D01*
X723060Y730389D01*
X723081Y730292D01*
X723106Y730196D01*
X723135Y730100D01*
X723168Y730006D01*
X723204Y729913D01*
X723244Y729822D01*
X723288Y729732D01*
X723335Y729644D01*
X723385Y729558D01*
X723439Y729474D01*
X723496Y729392D01*
X723556Y729313D01*
X723620Y729235D01*
X723686Y729161D01*
X723755Y729089D01*
X723827Y729020D01*
X723901Y728954D01*
X723979Y728890D01*
X724058Y728830D01*
X724140Y728773D01*
X724224Y728719D01*
X724310Y728669D01*
X724398Y728622D01*
X724488Y728578D01*
X724579Y728538D01*
X724672Y728502D01*
X724766Y728469D01*
X724862Y728440D01*
X724958Y728415D01*
X725055Y728394D01*
X725154Y728376D01*
X725252Y728363D01*
X725352Y728353D01*
X725451Y728347D01*
X725551Y728345D01*
X728091Y728345D01*
D10*
X1016635Y717550D02*
X1016635Y514350D01*
X958215Y514350D02*
X958215Y717550D01*
X1016635Y717550D01*
X1016635Y514350D02*
X997585Y514350D01*
X977265Y514350D02*
X958215Y514350D01*
X977265Y514350D02*
X977268Y514597D01*
X977277Y514845D01*
X977292Y515092D01*
X977313Y515338D01*
X977340Y515584D01*
X977373Y515829D01*
X977412Y516074D01*
X977457Y516317D01*
X977508Y516559D01*
X977565Y516800D01*
X977627Y517039D01*
X977696Y517277D01*
X977770Y517513D01*
X977850Y517747D01*
X977935Y517979D01*
X978027Y518209D01*
X978123Y518437D01*
X978226Y518662D01*
X978333Y518885D01*
X978447Y519105D01*
X978565Y519322D01*
X978689Y519537D01*
X978818Y519748D01*
X978952Y519956D01*
X979091Y520161D01*
X979235Y520362D01*
X979383Y520560D01*
X979537Y520754D01*
X979695Y520944D01*
X979858Y521130D01*
X980025Y521312D01*
X980197Y521490D01*
X980373Y521664D01*
X980553Y521834D01*
X980738Y521999D01*
X980926Y522159D01*
X981118Y522315D01*
X981314Y522467D01*
X981513Y522613D01*
X981716Y522755D01*
X981923Y522891D01*
X982132Y523023D01*
X982345Y523149D01*
X982561Y523270D01*
X982779Y523386D01*
X983001Y523496D01*
X983225Y523601D01*
X983451Y523701D01*
X983680Y523795D01*
X983911Y523883D01*
X984145Y523966D01*
X984380Y524043D01*
X984617Y524114D01*
X984855Y524180D01*
X985095Y524239D01*
X985337Y524293D01*
X985580Y524341D01*
X985823Y524383D01*
X986068Y524419D01*
X986314Y524449D01*
X986560Y524473D01*
X986807Y524491D01*
X987054Y524503D01*
X987301Y524509D01*
X987549Y524509D01*
X987796Y524503D01*
X988043Y524491D01*
X988290Y524473D01*
X988536Y524449D01*
X988782Y524419D01*
X989027Y524383D01*
X989270Y524341D01*
X989513Y524293D01*
X989755Y524239D01*
X989995Y524180D01*
X990233Y524114D01*
X990470Y524043D01*
X990705Y523966D01*
X990939Y523883D01*
X991170Y523795D01*
X991399Y523701D01*
X991625Y523601D01*
X991849Y523496D01*
X992071Y523386D01*
X992289Y523270D01*
X992505Y523149D01*
X992718Y523023D01*
X992927Y522891D01*
X993134Y522755D01*
X993337Y522613D01*
X993536Y522467D01*
X993732Y522315D01*
X993924Y522159D01*
X994112Y521999D01*
X994297Y521834D01*
X994477Y521664D01*
X994653Y521490D01*
X994825Y521312D01*
X994992Y521130D01*
X995155Y520944D01*
X995313Y520754D01*
X995467Y520560D01*
X995615Y520362D01*
X995759Y520161D01*
X995898Y519956D01*
X996032Y519748D01*
X996161Y519537D01*
X996285Y519322D01*
X996403Y519105D01*
X996517Y518885D01*
X996624Y518662D01*
X996727Y518437D01*
X996823Y518209D01*
X996915Y517979D01*
X997000Y517747D01*
X997080Y517513D01*
X997154Y517277D01*
X997223Y517039D01*
X997285Y516800D01*
X997342Y516559D01*
X997393Y516317D01*
X997438Y516074D01*
X997477Y515829D01*
X997510Y515584D01*
X997537Y515338D01*
X997558Y515092D01*
X997573Y514845D01*
X997582Y514597D01*
X997585Y514350D01*
D11*
X980694Y509905D02*
X980694Y498475D01*
X981964Y498475D02*
X979424Y498475D01*
X979424Y509905D02*
X981964Y509905D01*
X972222Y498475D02*
X969682Y498475D01*
X972222Y498475D02*
X972322Y498477D01*
X972421Y498483D01*
X972521Y498493D01*
X972619Y498506D01*
X972718Y498524D01*
X972815Y498545D01*
X972911Y498570D01*
X973007Y498599D01*
X973101Y498632D01*
X973194Y498668D01*
X973285Y498708D01*
X973375Y498752D01*
X973463Y498799D01*
X973549Y498849D01*
X973633Y498903D01*
X973715Y498960D01*
X973794Y499020D01*
X973872Y499084D01*
X973946Y499150D01*
X974018Y499219D01*
X974087Y499291D01*
X974153Y499365D01*
X974217Y499443D01*
X974277Y499522D01*
X974334Y499604D01*
X974388Y499688D01*
X974438Y499774D01*
X974485Y499862D01*
X974529Y499952D01*
X974569Y500043D01*
X974605Y500136D01*
X974638Y500230D01*
X974667Y500326D01*
X974692Y500422D01*
X974713Y500519D01*
X974731Y500618D01*
X974744Y500716D01*
X974754Y500816D01*
X974760Y500915D01*
X974762Y501015D01*
X974762Y507365D01*
X974760Y507465D01*
X974754Y507564D01*
X974744Y507664D01*
X974731Y507762D01*
X974713Y507861D01*
X974692Y507958D01*
X974667Y508054D01*
X974638Y508150D01*
X974605Y508244D01*
X974569Y508337D01*
X974529Y508428D01*
X974485Y508518D01*
X974438Y508606D01*
X974388Y508692D01*
X974334Y508776D01*
X974277Y508858D01*
X974217Y508937D01*
X974153Y509015D01*
X974087Y509089D01*
X974018Y509161D01*
X973946Y509230D01*
X973872Y509296D01*
X973794Y509360D01*
X973715Y509420D01*
X973633Y509477D01*
X973549Y509531D01*
X973463Y509581D01*
X973375Y509628D01*
X973285Y509672D01*
X973194Y509712D01*
X973101Y509748D01*
X973007Y509781D01*
X972911Y509810D01*
X972815Y509835D01*
X972718Y509856D01*
X972619Y509874D01*
X972521Y509887D01*
X972421Y509897D01*
X972322Y509903D01*
X972222Y509905D01*
X969682Y509905D01*
X962660Y509905D02*
X965200Y501015D01*
X958850Y501015D01*
X960755Y503555D02*
X960755Y498475D01*
D10*
X1305560Y514350D02*
X1305560Y717550D01*
X1247140Y717550D02*
X1247140Y514350D01*
X1247140Y717550D02*
X1305560Y717550D01*
X1305560Y514350D02*
X1286510Y514350D01*
X1266190Y514350D02*
X1247140Y514350D01*
X1266190Y514350D02*
X1266193Y514597D01*
X1266202Y514845D01*
X1266217Y515092D01*
X1266238Y515338D01*
X1266265Y515584D01*
X1266298Y515829D01*
X1266337Y516074D01*
X1266382Y516317D01*
X1266433Y516559D01*
X1266490Y516800D01*
X1266552Y517039D01*
X1266621Y517277D01*
X1266695Y517513D01*
X1266775Y517747D01*
X1266860Y517979D01*
X1266952Y518209D01*
X1267048Y518437D01*
X1267151Y518662D01*
X1267258Y518885D01*
X1267372Y519105D01*
X1267490Y519322D01*
X1267614Y519537D01*
X1267743Y519748D01*
X1267877Y519956D01*
X1268016Y520161D01*
X1268160Y520362D01*
X1268308Y520560D01*
X1268462Y520754D01*
X1268620Y520944D01*
X1268783Y521130D01*
X1268950Y521312D01*
X1269122Y521490D01*
X1269298Y521664D01*
X1269478Y521834D01*
X1269663Y521999D01*
X1269851Y522159D01*
X1270043Y522315D01*
X1270239Y522467D01*
X1270438Y522613D01*
X1270641Y522755D01*
X1270848Y522891D01*
X1271057Y523023D01*
X1271270Y523149D01*
X1271486Y523270D01*
X1271704Y523386D01*
X1271926Y523496D01*
X1272150Y523601D01*
X1272376Y523701D01*
X1272605Y523795D01*
X1272836Y523883D01*
X1273070Y523966D01*
X1273305Y524043D01*
X1273542Y524114D01*
X1273780Y524180D01*
X1274020Y524239D01*
X1274262Y524293D01*
X1274505Y524341D01*
X1274748Y524383D01*
X1274993Y524419D01*
X1275239Y524449D01*
X1275485Y524473D01*
X1275732Y524491D01*
X1275979Y524503D01*
X1276226Y524509D01*
X1276474Y524509D01*
X1276721Y524503D01*
X1276968Y524491D01*
X1277215Y524473D01*
X1277461Y524449D01*
X1277707Y524419D01*
X1277952Y524383D01*
X1278195Y524341D01*
X1278438Y524293D01*
X1278680Y524239D01*
X1278920Y524180D01*
X1279158Y524114D01*
X1279395Y524043D01*
X1279630Y523966D01*
X1279864Y523883D01*
X1280095Y523795D01*
X1280324Y523701D01*
X1280550Y523601D01*
X1280774Y523496D01*
X1280996Y523386D01*
X1281214Y523270D01*
X1281430Y523149D01*
X1281643Y523023D01*
X1281852Y522891D01*
X1282059Y522755D01*
X1282262Y522613D01*
X1282461Y522467D01*
X1282657Y522315D01*
X1282849Y522159D01*
X1283037Y521999D01*
X1283222Y521834D01*
X1283402Y521664D01*
X1283578Y521490D01*
X1283750Y521312D01*
X1283917Y521130D01*
X1284080Y520944D01*
X1284238Y520754D01*
X1284392Y520560D01*
X1284540Y520362D01*
X1284684Y520161D01*
X1284823Y519956D01*
X1284957Y519748D01*
X1285086Y519537D01*
X1285210Y519322D01*
X1285328Y519105D01*
X1285442Y518885D01*
X1285549Y518662D01*
X1285652Y518437D01*
X1285748Y518209D01*
X1285840Y517979D01*
X1285925Y517747D01*
X1286005Y517513D01*
X1286079Y517277D01*
X1286148Y517039D01*
X1286210Y516800D01*
X1286267Y516559D01*
X1286318Y516317D01*
X1286363Y516074D01*
X1286402Y515829D01*
X1286435Y515584D01*
X1286462Y515338D01*
X1286483Y515092D01*
X1286498Y514845D01*
X1286507Y514597D01*
X1286510Y514350D01*
D11*
X1269619Y509905D02*
X1269619Y498475D01*
X1270889Y498475D02*
X1268349Y498475D01*
X1268349Y509905D02*
X1270889Y509905D01*
X1261147Y498475D02*
X1258607Y498475D01*
X1261147Y498475D02*
X1261247Y498477D01*
X1261346Y498483D01*
X1261446Y498493D01*
X1261544Y498506D01*
X1261643Y498524D01*
X1261740Y498545D01*
X1261836Y498570D01*
X1261932Y498599D01*
X1262026Y498632D01*
X1262119Y498668D01*
X1262210Y498708D01*
X1262300Y498752D01*
X1262388Y498799D01*
X1262474Y498849D01*
X1262558Y498903D01*
X1262640Y498960D01*
X1262719Y499020D01*
X1262797Y499084D01*
X1262871Y499150D01*
X1262943Y499219D01*
X1263012Y499291D01*
X1263078Y499365D01*
X1263142Y499443D01*
X1263202Y499522D01*
X1263259Y499604D01*
X1263313Y499688D01*
X1263363Y499774D01*
X1263410Y499862D01*
X1263454Y499952D01*
X1263494Y500043D01*
X1263530Y500136D01*
X1263563Y500230D01*
X1263592Y500326D01*
X1263617Y500422D01*
X1263638Y500519D01*
X1263656Y500618D01*
X1263669Y500716D01*
X1263679Y500816D01*
X1263685Y500915D01*
X1263687Y501015D01*
X1263687Y507365D01*
X1263685Y507465D01*
X1263679Y507564D01*
X1263669Y507664D01*
X1263656Y507762D01*
X1263638Y507861D01*
X1263617Y507958D01*
X1263592Y508054D01*
X1263563Y508150D01*
X1263530Y508244D01*
X1263494Y508337D01*
X1263454Y508428D01*
X1263410Y508518D01*
X1263363Y508606D01*
X1263313Y508692D01*
X1263259Y508776D01*
X1263202Y508858D01*
X1263142Y508937D01*
X1263078Y509015D01*
X1263012Y509089D01*
X1262943Y509161D01*
X1262871Y509230D01*
X1262797Y509296D01*
X1262719Y509360D01*
X1262640Y509420D01*
X1262558Y509477D01*
X1262474Y509531D01*
X1262388Y509581D01*
X1262300Y509628D01*
X1262210Y509672D01*
X1262119Y509712D01*
X1262026Y509748D01*
X1261932Y509781D01*
X1261836Y509810D01*
X1261740Y509835D01*
X1261643Y509856D01*
X1261544Y509874D01*
X1261446Y509887D01*
X1261346Y509897D01*
X1261247Y509903D01*
X1261147Y509905D01*
X1258607Y509905D01*
X1254125Y498475D02*
X1250315Y498475D01*
X1250215Y498477D01*
X1250116Y498483D01*
X1250016Y498493D01*
X1249918Y498506D01*
X1249819Y498524D01*
X1249722Y498545D01*
X1249626Y498570D01*
X1249530Y498599D01*
X1249436Y498632D01*
X1249343Y498668D01*
X1249252Y498708D01*
X1249162Y498752D01*
X1249074Y498799D01*
X1248988Y498849D01*
X1248904Y498903D01*
X1248822Y498960D01*
X1248743Y499020D01*
X1248665Y499084D01*
X1248591Y499150D01*
X1248519Y499219D01*
X1248450Y499291D01*
X1248384Y499365D01*
X1248320Y499443D01*
X1248260Y499522D01*
X1248203Y499604D01*
X1248149Y499688D01*
X1248099Y499774D01*
X1248052Y499862D01*
X1248008Y499952D01*
X1247968Y500043D01*
X1247932Y500136D01*
X1247899Y500230D01*
X1247870Y500326D01*
X1247845Y500422D01*
X1247824Y500519D01*
X1247806Y500618D01*
X1247793Y500716D01*
X1247783Y500816D01*
X1247777Y500915D01*
X1247775Y501015D01*
X1247775Y502285D01*
X1247777Y502385D01*
X1247783Y502484D01*
X1247793Y502584D01*
X1247806Y502682D01*
X1247824Y502781D01*
X1247845Y502878D01*
X1247870Y502974D01*
X1247899Y503070D01*
X1247932Y503164D01*
X1247968Y503257D01*
X1248008Y503348D01*
X1248052Y503438D01*
X1248099Y503526D01*
X1248149Y503612D01*
X1248203Y503696D01*
X1248260Y503778D01*
X1248320Y503857D01*
X1248384Y503935D01*
X1248450Y504009D01*
X1248519Y504081D01*
X1248591Y504150D01*
X1248665Y504216D01*
X1248743Y504280D01*
X1248822Y504340D01*
X1248904Y504397D01*
X1248988Y504451D01*
X1249074Y504501D01*
X1249162Y504548D01*
X1249252Y504592D01*
X1249343Y504632D01*
X1249436Y504668D01*
X1249530Y504701D01*
X1249626Y504730D01*
X1249722Y504755D01*
X1249819Y504776D01*
X1249918Y504794D01*
X1250016Y504807D01*
X1250116Y504817D01*
X1250215Y504823D01*
X1250315Y504825D01*
X1254125Y504825D01*
X1254125Y509905D01*
X1247775Y509905D01*
M02*
