M48
;GenerationSoftware,Autodesk,EAGLE,9.6.2*%
;CreationDate,2024-09-03T17:29:25Z*%
FMAT,2
ICI,OFF
METRIC,TZ,000.000
T4C0.800
T3C0.813
T2C1.016
T1C1.700
%
G90
M71
T1
X31040Y14287
X132155Y112077
X74370Y112077
X70410Y112077
X93420Y112077
X89460Y112077
X112470Y112077
X15950Y14287
X11990Y14287
X35000Y14287
X127560Y14287
X55320Y14287
X51360Y14287
X74370Y14287
X70410Y14287
X93420Y14287
X89460Y14287
X112470Y14287
X108510Y14287
X131520Y14287
X108510Y112077
X151205Y14287
X147245Y14287
X17220Y112077
X13260Y112077
X32310Y112077
X55320Y112077
X51360Y112077
X36270Y112077
X128195Y112077
T2
X35560Y49847
X38100Y49847
X40640Y49847
X43180Y49847
X172085Y52387
X155893Y65087
X43180Y75248
X40640Y75248
X38100Y75248
X35560Y75248
X33020Y75248
X30480Y75248
X27940Y75248
X25400Y75248
X22860Y75248
X20320Y75248
X17780Y75248
X15240Y75248
X12700Y75248
X10160Y75248
X7620Y75248
X155893Y67628
X155893Y70168
X155893Y72708
X30480Y49847
X172085Y49847
X33020Y49847
X172085Y54927
X172085Y57467
X172085Y60007
X172085Y62547
X172085Y65087
X172085Y67628
X172085Y70168
X172085Y72708
X155893Y49847
X155893Y52387
X155893Y54927
X155893Y57467
X155893Y60007
X155893Y62547
X27940Y49847
X25400Y49847
X22860Y49847
X20320Y49847
X17780Y49847
X15240Y49847
X12700Y49847
X10160Y49847
X7620Y49847
T3
X55245Y33338
X55245Y20638
X51435Y33338
X51435Y20638
X74295Y33338
X70485Y33338
X70485Y20638
X93345Y33338
X93345Y20638
X89535Y33338
X89535Y20638
X112395Y33338
X112395Y20638
X108585Y33338
X108585Y20638
X131445Y33338
X131445Y20638
X127635Y33338
X127635Y20638
X151130Y33338
X151130Y20638
X147320Y33338
X147320Y20638
X128270Y105727
X128270Y93027
X112395Y105727
X112395Y93027
X108585Y105727
X108585Y93027
X93345Y105727
X93345Y93027
X89535Y105727
X94932Y70485
X74295Y105727
X74295Y93027
X70485Y105727
X70485Y93027
X55245Y105727
X55245Y93027
X36195Y105727
X36195Y93027
X32385Y105727
X32385Y93027
X13335Y105727
X13335Y93027
X132080Y105727
X132080Y93027
X51435Y105727
X51435Y93027
X89535Y93027
X74295Y20638
X15875Y33338
X15875Y20638
X12065Y33338
X12065Y20638
X34925Y33338
X34925Y20638
X31115Y33338
X31115Y20638
X17145Y105727
X17145Y93027
X75565Y70485
X75565Y67945
X75565Y55245
X75565Y52705
X75565Y65405
X75565Y62865
X75565Y57785
X75565Y60325
X67945Y52705
X67945Y55245
X67945Y57785
X67945Y60325
X67945Y62865
X67945Y65405
X67945Y67945
X67945Y70485
X94932Y52705
X94932Y55245
X94932Y67945
X94932Y57785
X94932Y60325
X94932Y65405
X94932Y62865
X102552Y70485
X102552Y67945
X102552Y65405
X102552Y62865
X102552Y60325
X102552Y57785
X102552Y55245
X102552Y52705
X123825Y52705
X123825Y55245
X123825Y67945
X123825Y70485
X123825Y57785
X123825Y60325
X123825Y65405
X123825Y62865
X131445Y70485
X131445Y67945
X131445Y65405
X131445Y62865
X131445Y60325
X131445Y57785
X131445Y55245
X131445Y52705
T4
X118110Y76200
X115570Y57785
X105727Y57785
X113982Y65405
X105092Y65405
X112395Y69533
X105092Y69533
X67945Y35560
X59372Y46355
X59372Y35560
X63581Y46355
X63581Y35560
X67945Y46355
X80328Y48895
X80328Y41910
X84138Y45720
X94932Y45720
X80328Y2572
X80328Y70485
X138430Y49847
X7620Y20638
X7620Y33020
X61440Y46355
X138430Y2572
X61440Y35560
X48577Y14605
X48577Y46990
X65723Y46355
X65723Y35560
X106045Y80328
X128270Y80328
X112395Y78105
X127952Y78105
X136525Y73978
X120650Y73978
X139700Y76200
M30